<?xml version="1.0" standalone="no"?>
<!DOCTYPE svg PUBLIC "-//W3C//DTD SVG 20010904//EN"
 "http://www.w3.org/TR/2001/REC-SVG-20010904/DTD/svg10.dtd">
<svg version="1.0" xmlns="http://www.w3.org/2000/svg"
 width="610.000000pt" height="552.000000pt" viewBox="0 0 610.000000 552.000000"
 preserveAspectRatio="xMidYMid meet">

<g transform="translate(0.000000,552.000000) scale(0.100000,-0.100000)"
fill="#000000" stroke="none">
<path d="M2110 5390 c-96 -9 -163 -35 -214 -83 -31 -29 -140 -196 -347 -527
-166 -267 -309 -495 -316 -507 -14 -21 -9 -25 158 -137 l172 -115 91 86 c329
310 733 503 1159 553 l107 13 -60 114 c-198 378 -420 587 -640 605 -25 2 -74
1 -110 -2z"/>
<path d="M2543 5346 c125 -46 273 -209 416 -458 104 -181 363 -728 357 -752
-4 -15 -35 -35 -111 -70 -106 -49 -124 -69 -82 -86 12 -5 236 -25 497 -45 261
-19 493 -37 515 -40 l40 -5 77 118 c113 174 429 732 435 768 3 18 1 39 -4 48
-7 13 -21 10 -108 -30 -138 -63 -180 -78 -197 -72 -8 4 -68 107 -134 229 -131
246 -174 302 -267 344 -131 60 -115 59 -822 62 -563 2 -645 1 -612 -11z"/>
<path d="M2866 4509 c-473 -50 -930 -292 -1233 -652 -185 -221 -320 -481 -387
-746 -31 -124 -31 -131 -6 -131 55 0 64 -13 301 -459 200 -375 233 -443 237
-488 4 -46 2 -54 -23 -77 -43 -40 -83 -35 -172 20 -63 40 -76 45 -88 33 -24
-26 -105 -163 -105 -179 0 -19 109 -203 172 -290 135 -189 330 -366 543 -495
70 -43 195 -105 210 -105 3 0 5 441 5 980 l0 980 750 0 750 0 2 -748 3 -748
175 299 c102 175 189 311 208 328 25 23 42 29 77 29 101 0 135 -51 135 -203
l0 -97 159 0 159 0 40 93 c189 432 212 911 65 1366 -45 143 -163 378 -245 493
-77 107 -198 247 -247 286 l-37 30 -57 -93 c-32 -51 -63 -95 -70 -98 -6 -2
-252 15 -546 39 -578 46 -577 46 -592 105 -13 53 8 77 112 129 l98 50 -75 157
c-42 87 -81 168 -87 181 -9 20 -17 22 -81 21 -39 -1 -107 -5 -150 -10z m1486
-801 c80 -37 152 -107 191 -187 30 -61 32 -73 32 -166 0 -89 -3 -107 -29 -162
-33 -73 -113 -154 -181 -184 -185 -82 -400 -7 -487 169 -46 93 -46 172 0 265
95 192 322 245 471 111 63 -57 92 -110 98 -183 10 -113 -40 -204 -140 -255
-149 -76 -312 4 -341 167 -21 115 80 237 198 237 77 0 138 -37 173 -104 20
-38 20 -114 0 -153 -62 -118 -227 -123 -281 -8 -9 19 -24 35 -32 35 -38 0 29
-103 87 -133 54 -29 148 -20 196 19 77 61 103 164 64 249 -81 177 -327 178
-418 3 -36 -71 -37 -162 -4 -230 81 -168 323 -206 454 -70 65 67 82 114 82
222 0 79 -4 102 -23 138 -33 61 -95 120 -161 150 -47 23 -70 27 -146 27 -77 0
-99 -4 -147 -27 -74 -34 -152 -113 -186 -186 -21 -46 -27 -76 -30 -154 l-4
-98 -718 0 -718 0 -4 98 c-5 115 -29 179 -100 257 -170 188 -472 147 -573 -77
-91 -202 50 -432 265 -432 157 0 273 115 272 270 -1 190 -202 305 -361 207
-58 -36 -101 -114 -101 -182 0 -60 33 -125 83 -165 35 -28 46 -31 111 -31 64
0 77 3 109 28 21 16 46 46 57 67 24 47 24 50 5 50 -8 0 -22 -16 -31 -35 -46
-97 -180 -113 -253 -30 -104 118 -18 295 143 295 91 0 175 -68 194 -157 31
-143 -73 -274 -217 -276 -147 -1 -261 112 -261 258 0 142 116 267 263 282 173
18 339 -135 340 -314 1 -124 -75 -238 -201 -300 -51 -25 -68 -28 -157 -28 -87
0 -107 3 -157 27 -79 37 -142 98 -181 177 -30 61 -32 73 -32 166 0 89 3 107
29 162 30 66 105 147 167 178 85 45 52 44 1324 42 l1210 -2 57 -27z m-491
-650 c6 -13 23 -33 37 -46 26 -22 27 -23 8 -37 -30 -23 -1643 -22 -1672 0 -19
15 -19 15 2 33 11 9 29 30 38 45 l18 27 779 0 778 0 12 -22z"/>
<path d="M5088 3541 c-81 -48 -150 -90 -153 -93 -3 -3 7 -36 21 -74 42 -109
83 -259 106 -384 29 -157 32 -526 5 -670 -24 -128 -62 -274 -92 -358 -14 -38
-25 -72 -25 -76 0 -11 417 -6 472 5 118 25 277 120 390 234 146 146 191 305
126 445 -32 68 -681 1060 -693 1059 -5 -1 -76 -40 -157 -88z"/>
<path d="M585 2909 c-165 -5 -310 -11 -323 -14 -23 -6 -47 -49 -38 -71 3 -7
57 -43 120 -81 64 -37 116 -71 116 -75 0 -5 -51 -88 -114 -185 -130 -205 -148
-237 -171 -316 -19 -65 -14 -116 16 -187 23 -51 681 -1202 685 -1197 2 1 -1
32 -6 67 -20 134 -4 253 48 364 24 50 527 852 552 880 5 4 54 -19 110 -53 83
-50 105 -59 121 -51 19 11 23 20 19 55 -1 11 -104 212 -228 447 l-227 428
-190 -2 c-104 0 -325 -5 -490 -9z"/>
<path d="M2745 2790 c-11 -4 -29 -18 -40 -30 -20 -22 -20 -38 -23 -986 -1
-530 1 -964 5 -964 5 0 45 -6 91 -14 l82 -13 -2 978 -3 979 -25 24 c-30 29
-58 37 -85 26z"/>
<path d="M3042 2787 c-13 -6 -32 -28 -43 -48 -18 -37 -19 -70 -19 -997 l0
-959 41 -7 c22 -4 63 -4 90 0 l49 7 0 959 c0 1057 3 1011 -61 1043 -15 8 -29
15 -31 14 -2 0 -13 -5 -26 -12z"/>
<path d="M3345 2790 c-11 -4 -29 -18 -40 -30 -20 -22 -20 -38 -23 -1000 l-2
-977 82 13 c46 8 86 14 91 14 4 0 6 434 5 965 l-3 965 -25 24 c-30 29 -58 37
-85 26z"/>
<path d="M3539 2784 c-12 -14 -14 -170 -17 -981 -3 -1021 -4 -984 41 -950 16
11 17 76 15 969 -2 675 -6 960 -14 968 -8 8 -15 6 -25 -6z"/>
<path d="M2390 2764 c-6 -16 -10 -370 -10 -939 0 -894 0 -915 19 -925 11 -5
24 -10 30 -10 14 0 15 1837 1 1874 -5 14 -14 26 -20 26 -6 0 -15 -12 -20 -26z"/>
<path d="M2514 2755 c-12 -29 -14 -175 -14 -963 l0 -928 53 -17 c30 -9 57 -17
60 -17 4 0 7 425 7 945 0 1048 2 1015 -60 1015 -26 0 -33 -6 -46 -35z"/>
<path d="M3710 2764 c-6 -16 -10 -317 -9 -792 l0 -767 29 70 29 70 0 697 c1
673 -2 748 -29 748 -6 0 -15 -12 -20 -26z"/>
<path d="M5841 1939 c-123 -116 -219 -164 -426 -210 -94 -21 -128 -23 -577
-26 l-478 -4 0 104 c0 118 -15 171 -56 189 -57 26 -60 21 -339 -456 l-263
-448 236 -357 c130 -196 268 -409 306 -473 39 -65 76 -117 82 -118 6 0 29 17
52 38 l42 39 0 141 0 142 243 0 c251 0 296 6 375 42 95 45 115 75 484 744 191
346 359 650 373 677 15 26 25 47 23 47 -1 -1 -36 -32 -77 -71z"/>
<path d="M1183 1463 c-143 -217 -156 -241 -192 -348 -43 -130 -56 -248 -42
-384 22 -209 77 -320 186 -376 l59 -30 683 -3 683 -3 0 184 0 183 -67 18
c-167 43 -388 146 -557 258 -229 152 -452 381 -592 608 -20 33 -40 60 -44 60
-3 0 -56 -75 -117 -167z"/>
</g>
</svg>
